<svg width="300" height="472" viewBox="0 0 300 472" fill="none" xmlns="http://www.w3.org/2000/svg">
<path d="M74.5 77C70.5 79.8 57.5 85 51.1 93C46.2 96.3322 32 107 44 118.5C56 130 61 132 74.5 156C88 180 83 189.5 83.5 215C84 240.5 81.5 271.5 76.5 301C71.5 330.5 59.5 359.5 57 380.5C54.5 401.5 52 411.5 70 426.5C88 441.5 154.5 462 187 460.5C219.5 459 251.5 452 265.5 444C279.5 436 277.5 420.5 270 404.5C262.5 388.5 242.5 348.5 235.5 330C228.5 311.5 227.5 265 228 227C228.5 189 230 180 235.5 143.5C241 107 246 81.5 231 66.5C216 51.5 186.5 45.5 166.5 44C150.5 42.8 125.167 52.5 114.5 57.5C102.833 62.8333 78.5 74.2 74.5 77Z" fill="#B1C6BF"/>
<path d="M138.5 2.90001C133.1 3.90001 128.4 6.50001 126.3 9.60001C124.1 13 124.4 18.3 127.5 29.8C128.9 35 130 39.3 130 39.4C130 39.6 126.3 40 121.8 40.3C100.4 41.9 74.7 53.2 64.1 65.7C62.3 67.8 59 71.6 56.9 74.1L52.9 78.6L42.2 76.4C14.7 70.6 -0.299999 71.6 1.5 78.9C2.7 83.6 10.1 95.9 18.3 106.8C30 122.3 34.4 129.5 41 143.6C44.3 150.5 47.9 157.4 49 159C57.1 170.4 70.4 220.3 71.3 242.5C71.3 244.5 63.5 280.5 49.5 343C41.8 377 37.3 399.3 34.5 417C33.6 422.8 32.4 429.8 31.8 432.7C29.2 445 32.8 450.9 44.6 453.5C48.6 454.4 52.2 455.6 52.6 456.1C53.5 457.6 64.2 462.7 70.1 464.4C83.2 468.2 91.6 469.1 129 470.1C188.8 471.8 209.7 470.6 227.4 464.5C234.9 461.9 244.3 456 246.7 452.4C247.5 451.1 250.3 449.4 252.9 448.5C255.5 447.7 259.2 445.7 261.1 444.1C264.4 441.3 264.5 441 264.3 434.8C263.7 418.4 247.8 334.6 240.6 309.7C236.2 294.7 231 271.2 231 266.6C231 265.4 229.9 261.2 228.6 257.4C227.4 253.6 225.5 246.3 224.6 241.1C222.9 232.2 222.9 230.7 224.5 215.1C226.8 192.6 231.6 148.7 233.1 136.9L234.4 127.3L241.9 127.8C246.7 128 249.9 128.7 250.6 129.6C252.1 131.5 261.5 165 264.4 179C265.8 185.3 268 198.6 269.5 208.5C274.1 240.7 277.7 260.1 279.3 261.7C282.5 264.9 296.5 264.6 297.2 261.2C297.7 258.7 295.4 237.5 293.1 223.1C290.7 208.4 286.7 175 285 156.5C284.4 149.3 283.5 140.8 283 137.5C282.5 134.2 281.4 124.5 280.5 116C278.1 92.6 275 87.7 260.6 85.1C257.3 84.5 251.1 84 246.8 84C239.6 84 239 83.8 239 82C239 80.9 239.5 79.1 240.1 78.1C241.1 76.6 240.6 75.4 237.2 70.9C225.7 55.6 204.2 46.3 171.6 42.3L157.2 40.5L157.6 35C157.9 32 158.8 25.9 159.7 21.4C161.5 12.2 160.5 7.10001 156.6 4.50001C153.9 2.70001 144 1.80001 138.5 2.90001ZM132 45.9C132 47.6 133.1 50.1 134.6 51.9C136.9 54.7 137.7 55 142.8 55C150.4 55 155.1 52.6 156.2 48.2L157.1 44.9L164.8 45.6C185.8 47.3 205.1 52.3 218.5 59.3C225.1 62.8 235 71.7 235 74.1C235 76.5 231.7 77.7 214 81.4C172.9 90.1 144.8 93.4 117 92.7C97.1 92.2 83.8 90.2 67.5 85.3L61.5 83.4L61.2 78.8C60.9 74.5 61.2 74 65.7 69.5C73.1 62 89.1 52.4 102 47.6C108.9 45.1 118.8 43.2 125.8 43.1L132 43V45.9ZM21 80C34.7 81.8 42.1 83 48.7 84.7L54.8 86.2L55.7 97.9C56.7 112.7 56.8 156.6 55.7 160.4C55 163.1 54.4 162.3 48 149.4C34 121.3 26.8 109.5 14.1 94C6.4 84.6 4.7 77.8 10.2 78.6C11.5 78.8 16.3 79.4 21 80ZM234 100.6C232.9 111 232 121.4 232 123.7C232 126.1 231.6 129.9 231 132.2C229.7 137.9 226.3 163.7 225 178C222.9 200.4 218.7 232.5 217.7 233.2C217.1 233.5 214.2 234.1 211.1 234.5C208 234.9 204.2 235.8 202.5 236.5C200.9 237.3 196.8 238.4 193.5 239C190.2 239.7 186.9 240.5 186.2 240.8C185 241.2 184.9 240.1 185.4 234.4C185.7 230.6 187.2 214.5 188.6 198.5C190.8 172.9 195.8 126.3 199.1 100.4L200.3 91.3L211.9 88.6C218.3 87.1 226.2 84.9 229.5 83.6C232.8 82.4 235.6 81.4 235.7 81.5C235.8 81.6 235.1 90.1 234 100.6ZM200 87.9C200 89.5 197.7 90.4 194.4 90.1C192.7 90 188.7 90.7 185.4 91.8C182.2 92.9 177.7 94 175.5 94.4C173.3 94.7 169.5 95.4 167 95.9C164.5 96.4 159.8 97.2 156.5 97.5C153.2 97.9 149 98.8 147.2 99.6C145.1 100.4 143.2 100.6 142.2 100.1C141.2 99.7 137.1 99.2 133 99.1C128.9 98.9 125.1 98.6 124.6 98.2C124 97.9 122.3 97.7 120.7 97.8C119.1 97.9 118.1 97.7 118.4 97.2C118.6 96.8 122.6 96.3 127.2 96.2C135.2 96 156.8 94.3 162 93.5C163.4 93.3 167.2 92.8 170.5 92.5C173.8 92.1 177.2 91.7 178 91.5C178.8 91.2 181.1 90.8 183 90.5C191.8 89.1 197.4 88 197.8 87.5C198.7 86.7 200 86.9 200 87.9ZM76.2 94.1C79.9 94.8 83 95.7 83 96.2C83 96.6 84.1 97 85.4 97C87.5 97 88 97.7 88.8 101.7C92.3 117.8 94.3 138.9 96.5 181C98 209.2 100.4 238.4 101.6 242.4C102.1 243.9 101.8 244.1 99.3 243.6C97.8 243.3 92.3 242.5 87.2 241.8C78.6 240.7 77.7 240.4 76.4 237.8C75.6 236.3 75 233.8 75 232.2C75 229.5 74.3 226.6 68.6 206C67.1 200.8 65.3 192.2 64.4 187C63.6 181.8 61.9 175.2 60.6 172.5C58.4 167.6 58.3 167.2 59.7 159.5C60.9 153.3 61 145.7 60.6 125C60.3 110.4 59.7 96.1 59.4 93.2L58.7 88L64 90.4C66.9 91.8 72.4 93.4 76.2 94.1ZM196 92.5C196 92.7 194.7 103.9 193 117.2C189.3 147.6 185.6 183.3 183 215C181.9 228.5 180.8 240 180.6 240.6C180.2 241.5 173.5 242.5 153.9 244.6L149.2 245V199.3C149.2 158.6 148.2 126.9 146.4 108.3L145.8 102.2L150.6 101.6C153.3 101.2 160.5 100 166.5 98.9C172.6 97.7 178.6 96.7 180 96.6C181.4 96.5 183.2 96.1 184 95.7C185.6 94.9 194 92.3 195.3 92.1C195.7 92 196 92.2 196 92.5ZM91.2 95.2C90.3 96.1 89.7 96.1 88.8 95.2C87.9 94.3 88.1 94 90 94C91.9 94 92.1 94.3 91.2 95.2ZM106.8 99.5C112.1 100.3 122.2 101.3 129.1 101.6L141.8 102.3L142.4 109.4C144.2 129.3 145 156.9 145 198.8V245.1L126.6 245C114.2 244.9 107.7 244.5 106.7 243.7C104.5 242 102.2 216.9 100 172C98.4 140.3 94.7 104.6 92.3 98.4C91.8 97 92.1 96.8 94.4 97.4C95.9 97.8 101.5 98.7 106.8 99.5ZM219 237.5C218.3 238.3 217 239 216.1 239C215.1 239 207 240.8 197.9 243.1C169.6 250 160.9 251.3 139.5 251.3C129.1 251.3 116 250.8 110.5 250.1C94.9 248.3 76 244.8 76 243.7C76 243.2 77.4 243 79.2 243.4C93.5 246.2 108.3 247.4 130 247.5C162.6 247.5 175.7 246.1 203.6 239.6C209.6 238.2 215.6 236.9 217 236.7C218.4 236.5 219.7 236.2 219.9 236.1C220.1 236.1 219.7 236.7 219 237.5ZM221.4 247C219.9 248.5 195.4 254.9 181.4 257.5C163.4 260.8 143.1 262.4 127.6 261.6C111.5 260.8 103.8 259.7 87.8 255.8C76.3 253 75 252.5 75 250.5V248.4L83.8 250.2C102.6 254.1 116.1 255.3 138.5 255.4C155.5 255.4 162.6 255.1 170 253.7C181.8 251.5 217 243 219 241.9C220.1 241.3 220.7 241.8 221.4 243.6C221.9 245.1 221.8 246.6 221.4 247ZM224 255.7C224 257.3 223.4 258 222.1 258C218.9 258 204.2 265.9 196.2 272C188.1 278.2 184.2 282.5 181.4 288.3L179.7 291.8L174.8 286.4C162.6 273.1 144.6 270.6 126.8 279.6C119.7 283.2 110.5 290.4 108.3 294C107.4 295.7 106.3 297 106 297C105.7 297 104.8 295.3 104 293.3C103.3 291.2 99.9 286.8 96.6 283.4C89.5 276.3 81.4 272.6 74.2 273.2C70 273.5 69.9 273.4 70.4 271C70.7 269.6 71.5 265.7 72.1 262.2C73.1 257.1 73.7 256.1 74.9 256.6C75.8 257 81.2 258.6 86.9 260.1C123.2 269.9 175 267.2 217 253.3C222.9 251.3 224 251.7 224 255.7ZM235.6 308.5C241.1 333.8 246.9 362.1 248.4 371.5C249.9 380.8 252.9 396.6 255.1 406.5C257.2 416.4 259 425.4 259 426.6C259 428.4 257.4 428.9 242.3 431.8C224.2 435.3 207.1 437.6 194.8 438.3L187.2 438.7L186.6 426.6C186.3 419.9 185.8 401.7 185.5 386C185.3 370.3 184.5 343.3 183.9 326C182.5 289.5 182.3 290.7 192.5 280.7C199.4 274 219.5 261.8 223 262.2C225.4 262.5 225.6 263.3 235.6 308.5ZM84.7 280C91.2 282.8 97.3 289.2 100.9 296.8C102.7 300.5 104.5 304.3 105.1 305.2C107.2 309.2 105.9 378.8 102.9 418.8L101.6 435L92.6 434.5C71.8 433.1 55.8 430 44.2 425C39.3 422.9 38.9 422.4 39.4 420.1C40.7 414.4 44.2 395.4 47.5 375.5C49.5 363.9 55 337.4 59.8 316.5C68.2 280.4 68.7 278.5 71 277.9C74.3 276.9 79.5 277.7 84.7 280ZM161.3 281.8C168.2 284.8 176.5 293.3 177.9 298.8C178.9 302.8 180.6 342.3 181.5 383C181.8 397 182.3 415.3 182.5 423.7L183 438.9L178.3 438.5C175.6 438.2 161.1 437.5 146 436.9C130.9 436.2 117.8 435.6 117 435.4C116.2 435.3 113.2 435.1 110.5 435.1L105.5 435L106.6 421.7C108.9 396.8 110 365.8 110 332.4C109.9 293.8 109.2 296.5 120.6 288.4C134.8 278.3 148.3 276.1 161.3 281.8ZM40.8 428.4C53.1 434.7 70.2 437.6 106 439.5C112.3 439.8 130.3 440.7 146 441.5C193.4 444 206.3 443.3 240.9 436.5C250.5 434.6 258.6 433.2 258.8 433.5C261.4 436.1 250.5 441.1 232.8 445.6C220.3 448.7 216.2 449.2 200.5 449.9C185.5 450.5 116.7 450.6 106.5 449.9C95.8 449.3 38.1 439 36.1 437.4C35.7 437 37.1 427 37.6 427C37.9 427 39.3 427.6 40.8 428.4ZM240.4 454.5C234.5 459.2 223.9 463.2 210.6 465.7C202.6 467.3 195.8 467.5 155 467.3C129.4 467.2 103 466.6 96.2 466C83.2 464.8 67.2 461.3 62.3 458.5L59.5 456.9L63 457.5C79.3 460.3 91.5 461.2 128.5 462.1C171.6 463.2 187.7 462.8 205 460.4C214.2 459.2 231.7 455.4 239 453.1C242.3 452.1 242.8 452.7 240.4 454.5Z" fill="#00635D"/>
<path d="M222.766 99.8513C222.366 101.151 219.666 132.351 219.666 135.951C219.666 139.351 221.666 137.951 222.366 134.051C223.866 124.851 225.266 100.451 224.266 99.4513C223.566 98.7513 223.066 98.8513 222.766 99.8513Z" fill="#00635D"/>
<path d="M212.866 136.451C212.466 136.751 212.166 141.951 212.166 147.951C212.166 156.251 212.466 158.851 213.466 158.551C214.266 158.251 214.766 154.751 214.966 146.951C215.166 136.751 214.766 134.451 212.866 136.451Z" fill="#00635D"/>
<path d="M80.1657 266.451C80.1657 269.951 80.4657 270.851 81.1657 269.751C82.4657 267.751 82.4657 263.051 81.1657 262.251C80.5657 261.851 80.1657 263.451 80.1657 266.451Z" fill="#00635D"/>
<path d="M59.7657 401.551C59.5657 401.951 59.1657 405.951 59.0657 410.251C58.8657 417.051 59.0657 418.251 60.4657 418.551C61.9657 418.851 62.1657 417.751 62.1657 409.851C62.1657 401.851 61.3657 399.051 59.7657 401.551Z" fill="#00635D"/>
<path d="M62.1657 420.551C62.1657 422.551 72.2657 429.751 74.9657 429.751C75.6657 429.751 73.2657 427.451 69.6657 424.751C62.7657 419.551 62.1657 419.251 62.1657 420.551Z" fill="#00635D"/>
<path d="M69.5192 327.2C68.6192 329.9 64.8192 355.9 63.1192 371.3C61.5192 385.6 61.6192 390.7 63.5192 388.8C63.8192 388.5 65.0192 380.2 66.1192 370.4C67.2192 360.5 68.9192 347.3 70.0192 340.9C71.1192 334.5 72.0192 328.5 72.0192 327.6C72.0192 325.7 70.1192 325.4 69.5192 327.2Z" fill="#00635D"/>
</svg>
