<svg width="300" height="315" viewBox="0 0 300 315" fill="none" xmlns="http://www.w3.org/2000/svg">
<path d="M119.5 84.5C100.3 81.7 91.5 73.3333 89.5 69.5L102.5 63L126 58H202C208.167 59.8333 219.7 64.9 216.5 70.5C212.5 77.5 194 84.5 177.5 84.5C161 84.5 143.5 88 119.5 84.5Z" fill="#B1C6BF"/>
<path d="M107 103.5C102.5 105.5 98 108.5 95.5 124C89.5 167 91 250 91 261.5C91 273 112 287.5 137 291.5C157 294.7 175.333 290.167 182 287.5C207 282 221 286.5 225 261.5C229 236.5 221 190 216 176C211 162 201 152.5 190 143C181.2 135.4 172 131.167 168.5 130C152 108 137.5 99.5 128.5 98.5C119.5 97.5 111.5 101.5 107 103.5Z" fill="#B1C6BF"/>
<path d="M151.5 3.49998C142.3 6.79998 139.7 14.4 144.5 23.4C145.9 26 147 28.5 147 29C147 29.5 144.9 30.2 142.3 30.5C139.6 30.9 135.9 31.5 134 31.9L130.5 32.6L136 35.9L141.5 39.1L156.5 38.7C168.2 38.4 172.7 37.9 177 36.3C183 34.1 183 34 172.8 32C165.9 30.6 165.1 29.1 167.5 21.9C171.9 8.69998 163.5 -0.900025 151.5 3.49998Z" fill="#00635D"/>
<path d="M118.5 37.3C115.2 39.1 109.5 42.7 105.8 45.3C98.6 50.5 87 62.3 87 64.4C87 65.2 85.6 66.3 84 66.9C79.9 68.3 79.9 72.2 84.1 76.1L87.3 79.1L86.5 95.8C86.1 105 85.5 115.4 85.1 119L84.4 125.5L82.2 120.6C79.4 114.3 70 103.7 64.6 100.5C54.2 94.4 30.6 93 20.6 97.9C14 101.2 8.4 107 5.2 113.8C3.2 118.3 2.6 121.4 2.2 129.5C1.8 138.9 2 140.2 5.5 151C10.1 165.3 13.6 173.1 18.8 180.6C27.1 192.7 38.2 202.1 53.8 209.9C61 213.5 67.4 219 69.7 223.4C70.6 225.1 71.6 229.6 71.9 233.5C72.4 239.8 72.7 240.5 74.7 240.8C76.6 241.1 76.8 241.5 76.3 244.3C75.9 246.1 75.6 253.8 75.5 261.5C75.5 282.4 78.5 289.9 89.4 295.6C93.4 297.7 95 299.1 95 300.6C95 305.8 100.3 308.1 117.3 310.5C134 312.8 153.2 313.6 174.5 312.8C201.1 311.9 214.6 309.2 216.3 304.6C216.7 303.7 219 302.1 221.5 300.9C229.7 297 232.3 292 235.5 274C236.3 269.3 237 261.4 237 256.3V247.2L241.8 245.6C248.5 243.3 271.8 230.3 275.8 226.6C281.3 221.5 285.7 214.9 287.8 208.5C288.9 205.2 290.7 200 291.8 197C294.9 188.5 295.4 176.8 293.5 157.5C292.6 148.1 291.4 139.1 290.8 137.5C289.5 133.7 288.5 109.9 289.4 102.7C290 98.5 291.2 95.5 294.3 90.9C298.1 85.2 298.5 84.1 298.3 78.9C298 68.8 295.1 66.9 285.8 70.9C280 73.4 276.7 77.4 273.8 85.7C271.6 92.3 271.5 93.2 271.8 122C272.2 153.9 271.7 159 266.7 170.1C263.4 177.4 250 195 245.7 197.7C242.6 199.6 235.4 203 234.4 203C234.2 203 234 199.7 234 195.6C234 191.5 232.9 180.6 231.6 171.3C228.6 150.7 224.3 106.8 223.7 90.2L223.2 78L226.1 76.5C229.4 74.8 231 72.2 231 68.6C231 66.7 230.4 66 228 65.5C225.8 65 224.4 63.8 223.1 61.1C222 59.1 219 55 216.3 52C212.4 47.6 209.3 45.6 199.6 40.9L187.8 35.2L183.6 37C177.2 39.7 169.5 41.1 157.5 41.7C145 42.3 136.2 40.6 129.8 36.4C127.7 35.1 125.7 34 125.3 34C124.8 34 121.8 35.5 118.5 37.3ZM229.4 68.7C232.1 75.8 206.2 83.2 171.5 85.3C149.6 86.7 125.8 86 115 83.7C110.9 82.9 104.4 81.7 100.6 81C92.8 79.8 87.6 77.4 84.1 73.6C81.8 71.2 81.8 70.8 83.2 69.4C84.6 68 85.1 68 87.7 69.3C89.3 70.2 92.4 71.1 94.5 71.5C96.7 71.9 100.5 72.8 103 73.6C124.6 80.2 153.1 82.1 180 78.5C194.4 76.7 203.1 74.7 215 70.5C226 66.7 228.5 66.4 229.4 68.7ZM294.6 70.8C295.3 71.2 296.1 74.5 296.5 78.1C297.2 84.5 297.1 84.8 294.1 88.2C288.1 95.1 286.5 100.2 286.6 113C286.6 119.3 287.4 128.8 288.3 134C290.7 147.6 293.3 181.2 292.5 187.3C291.5 194.2 286.7 207.1 282.5 213.9C278 221.3 271 227.9 262.5 232.7C255.4 236.8 238.4 243.7 237.6 242.9C237.3 242.6 236.6 236.4 236 229C235.5 221.6 234.7 213.6 234.4 211.3L233.9 207.2L239.1 204.5C250.2 199 260.4 188 267.1 174.5C273.8 160.8 274.1 158.1 273.9 126.5C273.6 93.1 274.4 86.7 279.9 79.3C282 76.5 285.4 73.5 288 72.2C292.9 69.8 293 69.7 294.6 70.8ZM220.3 90.2C219.9 98.6 220.3 105.3 221.9 116.5C223 124.7 224.9 139.6 226 149.5C227.2 159.4 228.8 170.9 229.6 175C231.2 183.5 230.9 184.1 224 186C216.8 188 189.8 190.9 167.2 192.1C141.9 193.4 101 192.8 94.5 191C87.3 189 82.2 186.9 81.7 185.7C81.5 185 82.3 173.2 83.6 159.5C86.5 126.9 89 93.9 89 86.2C89 79.9 89.6 79.2 92.8 80.9C96.5 82.8 126.1 86.9 140.5 87.4C169.5 88.5 199.7 85.7 213.5 80.7C221.1 77.9 220.9 77.6 220.3 90.2ZM54.7 98.7C62.3 100.6 68.5 104.8 75.1 112.6C83 121.9 84.6 130.6 80.3 139.8C78.3 143.9 72.6 148.4 70.4 147.6C69.1 147.1 69.3 146.4 71.9 143.5C77.2 137.4 78.1 129 74.3 121.6C71.2 115.6 62 107.2 56.3 105C48.5 102.1 35.8 101.3 28.9 103.3C11.6 108.4 5 127.2 12.8 149.7C18.2 165.5 22.4 172.6 31.4 181.5C43.4 193.5 53.9 201.4 61.1 204.1C68.5 206.9 75 212.8 76.5 218C77.8 222.4 76.9 238.2 75.4 238.7C74.7 238.9 74.1 236.7 73.8 232.6C73.1 224.4 69.8 218.5 63.1 213.6C60.4 211.6 57.8 210 57.3 210C55.8 210 35.9 197.2 32.6 194.2C26.5 188.5 17.5 176.1 13.8 168.4C6.7 153.2 3.7 142.6 3.7 132.5C3.7 120.3 5.7 113.6 11.5 107.2C21 96.7 35.3 93.8 54.7 98.7ZM47 104.4C55.8 105.5 59.2 107.1 65.3 112.8C72.6 119.8 75 124.3 75 131C75 136.5 73.5 140.4 70.1 143.4C66.1 147 68.3 151 73.3 149.1C74.6 148.6 77.1 146.5 79 144.4L82.3 140.6L81.7 146C81 152.5 79.3 179.4 78.4 200.3L77.8 215.1L75.3 211.5C73.3 208.6 70.6 206.8 63.2 203.3C46.2 195.4 27.6 178.6 20.3 164.4C9.3 143.1 7.9 123.3 16.6 113.1C21.2 107.7 25.6 105.2 32.1 104.2C37.5 103.4 38.7 103.4 47 104.4ZM232.4 218.2C233.7 225.4 234.1 252.4 233.2 266.2C232.3 278.6 231.8 281.7 229.5 286.8C228 290.1 225.6 294 224.1 295.4C218.8 300.4 202.9 303 167 304.7C145.2 305.7 117.5 302.6 102.1 297.4C80.3 290.1 76.7 281.4 79.1 241.1C79.8 229.2 80.4 219.4 80.6 219.2C80.7 219 82.1 219.5 83.7 220.3C85.2 221.1 92.1 222.8 99 224.1C129.7 229.6 186.6 226.8 219.5 218.2C225.6 216.6 230.8 215.2 231.1 215.1C231.5 215.1 232 216.5 232.4 218.2ZM105 301.5C113.5 303.5 139.9 306.6 157.4 307.7C166.8 308.3 200.1 306.5 208.4 304.9C214.5 303.8 215.4 304.4 210.6 306.4C203.8 309.2 185.7 311 163.1 311.1C123.1 311.3 96 306.9 96 300.2C96 299.3 96.6 299 97.8 299.5C98.7 299.8 102 300.7 105 301.5Z" fill="#00635D"/>
<path d="M95.1 108.7C94.5 113 93.6 121.4 93 127.4C92.4 133.4 91.7 138.7 91.4 139.1C91.2 139.5 91.4 140.1 91.9 140.4C93.5 141.4 93.9 139.8 95.4 123.4C96.3 114.7 97.2 106 97.6 104.2C98 102.3 97.8 101 97.2 101C96.7 101 95.7 104.5 95.1 108.7Z" fill="#00635D"/>
<path d="M100.6 135.2C99.7 138 99.1 150 99.7 153.4C100.8 160.1 101.5 157.1 101.6 145.5C101.8 134.8 101.5 132.2 100.6 135.2Z" fill="#00635D"/>
<path d="M221.8 258.7C221.3 259.3 220.6 263.9 220.1 269C219.4 275.1 218.4 279.3 217 281.7C215.8 283.8 215.5 285 216.2 284.8C218.7 283.9 221 278.2 222.1 270.3C223.2 261.9 223.1 256.6 221.8 258.7Z" fill="#00635D"/>
<path d="M207.6 278.2C206.5 287.4 207 290.2 208.5 284C210.1 277.7 210.4 273 209.1 273C208.7 273 208 275.4 207.6 278.2Z" fill="#00635D"/>
</svg>
