<?xml version="1.0" standalone="no"?>
<!DOCTYPE svg PUBLIC "-//W3C//DTD SVG 20010904//EN"
 "http://www.w3.org/TR/2001/REC-SVG-20010904/DTD/svg10.dtd">
<svg version="1.0" xmlns="http://www.w3.org/2000/svg"
 width="300.000000pt" height="211.000000pt" viewBox="0 0 300.000000 211.000000"
 preserveAspectRatio="xMidYMid meet">
<g transform="translate(0.000000,211.000000) scale(0.100000,-0.100000)"
fill="#5d3737" stroke="none">
<path d="M1185 2074 c-11 -1 -94 -8 -185 -14 -126 -9 -198 -20 -302 -46 -290
-72 -432 -144 -480 -242 -19 -40 -20 -55 -15 -151 12 -206 64 -425 144 -604
23 -53 43 -99 43 -101 0 -3 -30 -14 -68 -27 -37 -12 -85 -34 -107 -49 -22 -14
-63 -42 -92 -60 -60 -40 -93 -91 -93 -148 0 -33 9 -51 59 -114 67 -85 130
-141 249 -222 213 -144 362 -191 772 -241 332 -41 690 -22 925 48 44 14 100
28 125 32 25 4 54 13 65 20 11 7 54 25 95 39 96 35 164 74 255 147 93 75 162
151 199 218 48 89 27 186 -46 214 -8 3 20 38 79 96 103 102 134 156 159 278
27 127 0 268 -63 344 -61 72 -192 98 -309 61 l-61 -19 1 106 c1 116 -8 143
-61 192 -129 120 -451 209 -858 239 -127 9 -380 12 -430 4z m640 -52 c183 -29
437 -96 520 -137 170 -83 218 -210 105 -274 l-38 -21 -29 24 c-47 40 -206 116
-295 143 -258 76 -363 88 -681 80 -247 -6 -384 -22 -532 -62 -49 -14 -110 -30
-135 -36 -25 -6 -52 -15 -60 -20 -8 -4 -60 -30 -115 -57 -55 -27 -116 -63
-135 -80 l-35 -30 -47 24 c-49 25 -86 67 -107 121 -11 26 -10 37 4 67 33 69
114 121 250 161 33 9 75 25 95 35 60 30 199 58 325 65 66 3 138 10 160 15 22
4 171 7 330 6 236 -2 314 -7 420 -24z m-597 -254 c2 -13 -12 -17 -70 -23 -89
-9 -216 -45 -322 -91 -90 -39 -96 -40 -96 -19 0 38 265 129 435 148 41 5 50 3
53 -15z m636 -33 c54 -9 127 -27 161 -40 34 -14 69 -25 79 -25 20 0 92 -35
101 -50 8 -12 -8 -13 -21 -1 -5 5 -27 17 -49 26 l-40 16 39 -40 c27 -28 37
-45 32 -57 -6 -15 -13 -11 -50 27 -24 25 -63 55 -88 67 -48 22 -155 46 -255
57 -49 5 -62 11 -66 26 -5 17 -1 19 26 14 18 -3 77 -12 131 -20z m-361 -60
c15 -4 27 -13 27 -20 0 -9 -40 -14 -152 -19 -84 -3 -192 -9 -240 -12 -77 -6
-88 -4 -88 10 0 11 9 16 30 16 39 0 133 20 144 31 10 9 237 4 279 -6z m-1138
-150 c185 -78 410 -128 690 -156 146 -15 517 -14 657 1 322 34 578 105 731
203 31 20 59 37 62 37 2 0 1 -22 -2 -50 -6 -50 -6 -50 23 -50 16 0 66 7 112
16 69 14 92 15 136 5 65 -15 94 -43 138 -136 29 -63 32 -79 33 -165 0 -89 -2
-100 -36 -170 -47 -97 -81 -138 -211 -253 -172 -153 -292 -206 -541 -242 -26
-3 -55 -14 -65 -24 -55 -56 -146 -114 -222 -142 -158 -57 -228 -69 -420 -69
-292 0 -447 38 -628 156 -64 42 -132 90 -150 107 -99 93 -253 362 -350 607
-46 117 -96 356 -85 401 5 19 9 17 47 -19 22 -22 59 -48 81 -57z m466 5 c173
-57 327 -83 489 -83 99 0 169 5 220 16 91 21 100 21 100 3 0 -50 -402 -70
-592 -29 -53 12 -146 36 -207 54 -89 26 -111 36 -111 51 0 10 2 18 4 18 2 0
46 -14 97 -30z m577 -67 c-10 -2 -26 -2 -35 0 -10 3 -2 5 17 5 19 0 27 -2 18
-5z m-994 -599 c4 -11 -11 -23 -62 -45 -138 -62 -172 -81 -198 -111 -22 -27
-25 -38 -19 -72 7 -47 20 -63 97 -121 81 -63 181 -112 273 -134 323 -80 770
-121 1120 -102 199 11 452 39 595 67 103 19 309 86 347 112 15 10 45 30 66 43
36 23 87 104 87 138 0 9 -9 27 -20 41 -22 29 -26 56 -7 63 22 8 44 -12 62 -55
24 -62 13 -97 -56 -181 -108 -129 -248 -234 -370 -276 -31 -10 -71 -27 -89
-36 -32 -16 -190 -60 -325 -90 -86 -19 -237 -35 -405 -42 -159 -6 -341 9 -624
53 -160 24 -266 58 -409 131 -203 102 -407 301 -407 397 0 51 121 152 246 205
82 34 90 36 98 15z"/>
<path d="M2551 1386 c-62 -16 -66 -21 -75 -87 -16 -119 -141 -450 -194 -511
-26 -31 -7 -51 41 -46 46 5 225 106 330 186 177 134 235 357 115 445 -34 25
-143 32 -217 13z m168 -27 c45 -16 65 -60 65 -139 0 -47 -6 -76 -21 -106 -28
-53 -161 -194 -206 -218 -33 -18 -36 -18 -101 -1 -36 10 -66 20 -66 23 0 2 25
66 55 142 30 76 59 160 64 187 16 81 27 101 63 112 46 13 109 13 147 0z m-264
-493 l30 -13 -27 -13 c-22 -10 -33 -10 -58 0 -16 7 -30 19 -30 26 0 18 45 18
85 0z"/>
<path d="M368 1364 c-8 -8 17 -110 46 -188 19 -51 88 -183 113 -215 2 -3 8 0
13 5 7 7 2 25 -15 55 -60 106 -106 209 -122 276 -17 70 -23 80 -35 67z"/>
<path d="M526 1128 c19 -65 90 -178 110 -178 20 0 18 8 -15 49 -16 20 -42 62
-57 94 -28 56 -52 78 -38 35z"/>
<path d="M2316 1072 c-2 -4 -14 -44 -25 -89 -20 -81 -42 -134 -87 -205 -13
-20 -20 -39 -15 -42 22 -14 88 118 111 222 11 49 22 97 26 106 6 16 -1 23 -10
8z"/>
</g>
</svg>
