<svg width="300" height="368" viewBox="0 0 300 368" fill="none" xmlns="http://www.w3.org/2000/svg">
<path d="M144.5 58.5C104 58.5 65.5 61 41.5 67.5C32.7 69.5149 21.8333 77.3396 17.5 81C15.3333 87 15 100.8 31 108C51 117 71 122 117 122C163 122 238 118.5 254 117C270 115.5 282.5 109.5 282.5 99C282.5 90.6 275.5 83.5 272 81C271 78.3333 266 71.9 254 67.5C239 62 185 58.5 144.5 58.5Z" fill="#B1C6BF"/>
<path d="M107 3.59997C71.1 5.99997 44.1 10.4 33.9 15.6C28.3 18.4 24.4 22.8 23.1 27.8C22.6 29.8 21.9 36.2 21.5 42C20.7 55.8 20.4 57 17.9 57C16.7 57 14 58.7 11.9 60.9L8 64.8V91.8V118.9L11.1 122.5C12.8 124.4 15.9 126.5 18 127.1L21.8 128.3V191.9C21.7 249.1 22.3 273.4 24.6 301.2L25.3 309H22.3C17.2 309 8.8 312.1 5.8 315L3 317.8V337.2C3 356.1 3.1 356.7 5.2 358.8C8.2 361.6 11.3 362.6 18.5 363.4C21.8 363.7 83.5 364.1 155.5 364.2C278.9 364.5 286.7 364.4 289.3 362.8C292.8 360.4 294.1 357.9 295.7 349.5C297.3 340.9 297.4 334.7 295.9 326.1C293.9 314.6 290.1 310 282.2 309.2L277.3 308.8L276.7 217.6L276.2 126.5L279 123.5C280.6 121.8 282.4 119.2 282.9 117.7C284.6 113.3 284.3 69.7 282.6 65.7C280.9 61.6 277.4 58.5 272.8 57.1C269.3 55.9 269.1 55.7 268.5 50.2C266.4 29.5 263.8 21.5 257.1 15C254.6 12.5 250.7 9.89997 248.5 9.19997C240.7 6.59997 128 2.19997 107 3.59997ZM171.5 6.99997C225.9 9.39997 243.7 10.8 248.7 13C251.3 14.2 254.5 16 255.7 17.1C260.1 21.3 264.2 34.4 265.5 48.7L266.1 56H144.8H23.5L24.2 44.2C25.2 28.8 25.6 26.6 28.7 23C32.2 18.8 36.8 16.6 47.5 14.2C78.1 7.09997 118.5 4.79997 171.5 6.99997ZM153.7 60.1C163.2 60.7 171.8 60.9 172.7 60.6C173.7 60.4 195.3 59.8 220.8 59.5L267 58.8L272.3 61.4C280.4 65.3 280.5 65.7 280.5 91.9C280.5 112.1 280.3 114.9 278.6 118.3C274.7 126.1 286.4 125.5 146 125.8C46.8 126 20 125.7 18.1 124.8C16.5 124 14.8 121.4 13.3 117.8C11.2 112.6 11 110.2 10.8 92.3C10.5 75.8 10.8 71.6 12.2 66.9C14.2 60.5 14.9 60 24 59.1C33.7 58 133.9 58.8 153.7 60.1ZM122 153.5C122.6 177.7 122.7 178.7 125.1 183C127 186.6 128.7 188.1 133.7 190.5C138.6 192.9 140.2 194.2 141 196.7C142.9 202.2 148.7 204.5 154.5 201.8C157.3 200.6 160.5 195.6 159.5 194C159.2 193.5 159.8 192.9 160.9 192.5C164.8 191.3 171 185.9 173 181.9C174.2 179.7 175.4 175.8 175.7 173.2L176.2 168.5H191.4C207.4 168.4 213.7 167.3 217.1 163.9C221.4 159.6 217.7 152.8 210.4 151.4C208.2 151 199.8 151.2 191.5 151.8C183.3 152.4 176.4 152.8 176.3 152.6C176.1 152.5 175.7 146.9 175.3 140.2L174.7 128H223.1C259.5 128 271.9 128.3 272.8 129.2C273.7 130.1 274 150.5 274 214.7V299H267H260L259.8 281.8C259.6 270.7 259.1 264.7 258.5 265C257.9 265.3 257.6 271.8 257.8 282.2L258.1 299H220.9C185.9 299 183.8 298.9 184.6 297.2C185 296.3 186.2 293 187.3 289.9L189.2 284.3L197.3 283.6C208.6 282.8 212.3 281.5 215.8 277.5C219.6 273.2 221.4 265.2 220.8 255C219.9 240.7 216 237.5 200.3 238.2L191 238.6V230.2V221.9L187.4 220.4C179.2 217 122.7 217.6 115.2 221.2C112.6 222.5 112.5 222.9 112.2 231.5C111.9 241.3 114.5 272.8 116.2 280C117.5 285.2 121 293.2 124 297.7L126.1 300.8L116.3 301.6C102.2 302.9 29.3 302.7 28.2 301.5C26 299.2 24.5 252.9 24.6 191.9C24.7 158 25 129.8 25.3 129.3C25.6 128.8 46.3 128.4 73.7 128.5H121.5L122 153.5ZM173.4 133.2C173.7 136.1 174 141.7 174 145.6V152.7L170.9 153.4C165.1 154.5 164.1 154.2 162 149.9C158.1 142.3 148.7 141.1 142.4 147.5C136.3 153.5 136.2 162.3 142 168.1C146.9 173 154.3 173.1 160 168.4C162.7 166.1 163.4 165.9 168.2 166.7C173.1 167.4 173.5 167.7 173.8 170.5C174.6 177.3 169.5 186.1 162.6 189.8C158.1 192.2 142.1 192.1 135.8 189.7C128.5 186.9 125.4 182.7 124.7 174.4C124.2 169 123.6 132.1 123.9 128.7C124 128.3 135 128 148.4 128H172.7L173.4 133.2ZM214.4 155.1C215.9 156.3 217 158.1 217 159.6C217 161.6 216.1 162.5 212.3 164.2C206.1 167 186.8 167.8 173.5 165.8L164.5 164.4L164.2 160.3L163.9 156.2L169.6 155.4C177.8 154.4 194.1 153.3 203.6 153.1C210.5 153 212.1 153.3 214.4 155.1ZM157 195.2C157 197.2 152.4 201 150 201C147.6 201 143 197.2 143 195.2C143 193.8 144.1 193.5 150 193.5C155.9 193.5 157 193.8 157 195.2ZM186 221.9L188.5 223.3L185.7 224.3C183.9 224.9 181.9 224.8 179.7 224C174.2 221.9 143.2 221.6 129.5 223.4C122.5 224.3 117.2 224.6 116.7 224.1C114.1 221.5 130.6 220.1 160.5 220.4C178 220.5 184.1 220.9 186 221.9ZM130.5 228.7C144.7 230.5 165.9 230 179.4 227.5C184.3 226.7 188.4 226.1 188.7 226.3C188.9 226.5 189.1 236.3 189.2 248.1C189.3 277.4 186.9 291.2 180.2 299.2C176 304.1 172.6 305 157.7 305C132.6 305 126 301.2 119.3 282.6C117.6 277.8 114.1 245 114 233.6C114 225.9 114 225.8 116.3 226.5C117.5 226.8 123.9 227.8 130.5 228.7ZM214.3 242C217.5 244.5 219 249.5 219 257.7C219 266 217.4 273 214.7 276.4C212.1 279.6 203.9 282 195.3 282C190.8 282 190 281.7 190 280.1C190 278.6 191 278.1 195.6 277.5C202.8 276.6 208.9 274.5 210.6 272.2C214.1 267.5 213.4 251.3 209.4 247.3C207.4 245.3 206.1 245 199 245C191.1 245 191 245 191 242.5V240H201.4C210.3 240 212.1 240.3 214.3 242ZM205 246.9C210.3 248.3 213 261.4 209.6 269.3C208.2 272.9 204.8 274.4 195.6 275.6L190.9 276.3L191.4 261.7C191.8 253.6 192 246.8 192 246.5C192 245.8 202 246.1 205 246.9ZM235.8 301.1H274.1L273.8 304.8L273.5 308.5L223 308.7C175.1 308.9 172.6 308.8 174.8 307.2C176.1 306.3 178.6 304.2 180.3 302.7C183.3 300.1 183.9 299.9 190.5 300.5C194.4 300.8 214.7 301 235.8 301.1ZM132.7 305.5L136.3 309H82.2H28V306.2V303.5L64.2 303.8C94.4 304 108.7 303.6 127.3 302.1C128.3 302.1 130.7 303.6 132.7 305.5ZM143.9 307.6C144.9 308.5 138.3 307.9 137 306.9C135.9 306.2 136.6 306.1 139.5 306.6C141.7 307 143.7 307.4 143.9 307.6ZM159.3 308.7C157.5 308.9 154.5 308.9 152.8 308.7C151 308.5 152.4 308.3 156 308.3C159.6 308.3 161 308.5 159.3 308.7Z" fill="#00635D"/>
<path d="M50.9 73.2999C45.9 75.9999 42.5 80.3999 40.9 86.3999C38.4 95.6999 46.9 109.3 57 112C76.4 117.2 92.4 96.0999 80.7 80.7999C73.7 71.6999 60.4 68.2999 50.9 73.2999ZM69.9 76.7999C75.3 80.0999 78.3 85.1999 77.7 90.0999C76 103.5 64.8 109.5 52.6 103.6C41.8 98.2999 39.7 87.2999 47.8 78.5999C53.7 72.3999 61.6 71.6999 69.9 76.7999ZM82 87.9999C84.6 97.6999 76.9 108.4 65.9 110.5C61.5 111.3 55 109.7 51.8 107L49.5 105L53.5 106.6C59.3 109 67.8 108.1 72.3 104.7C77.2 101 80.3 94.1999 79.8 88.0999C79.4 82.3999 80.5 82.3999 82 87.9999Z" fill="#00635D"/>
<path d="M144.5 88.8C138.7 90.2 137.2 98.4 142.3 101.2C144.7 102.5 168 102.7 177.6 101.5C186 100.5 189.4 95.7 185.4 90.5C184 88.7 182.6 88.5 165.7 88.3C155.7 88.2 146.2 88.4 144.5 88.8ZM146 95.7C146 101.2 145.5 101.1 144.6 95.2C144.2 92.6 144.4 91 145 91C145.5 91 146 93.1 146 95.7ZM149.4 96.2C149.9 99.4 149.8 101 149.1 101C148.4 101 148 98.8 148 95.8C148 89.6 148.5 89.8 149.4 96.2ZM153.4 93.2C154.3 96.6 154.1 100 153.1 100C152.1 100 151 96.6 151 93.2C151 92 151.4 91 151.9 91C152.4 91 153 92 153.4 93.2ZM156.9 95.7C156.8 100 156.7 100.2 156 97.5C154.9 93.1 154.9 91 156 91C156.6 91 156.9 93.1 156.9 95.7ZM161 95.5C161 98 160.6 100 160 100C159.5 100 159 98 159 95.5C159 93 159.5 91 160 91C160.6 91 161 93 161 95.5ZM165 95.5C165 98 164.6 100 164 100C163.5 100 163 98 163 95.5C163 93 163.5 91 164 91C164.6 91 165 93 165 95.5ZM174 95.5C174 98 173.6 100 173 100C172.5 100 172 98 172 95.5C172 93 172.5 91 173 91C173.6 91 174 93 174 95.5ZM178 95C178 97.2 177.6 99 177 99C176.5 99 176 97.2 176 95C176 92.8 176.5 91 177 91C177.6 91 178 92.8 178 95ZM180.7 97.2C180.5 98.5 180.3 97.5 180.3 95C180.3 92.5 180.5 91.5 180.7 92.7C180.9 94 180.9 96 180.7 97.2ZM185 93.7C185 94.7 184.5 96.2 184 97C183.3 98.1 183 97.7 183 95.2C183 93.5 183.5 92 184 92C184.6 92 185 92.8 185 93.7ZM143 96.1C143 97.1 142.6 98 142 98C141.5 98 141 96.8 141 95.4C141 94 141.4 93.1 142 93.5C142.6 93.8 143 95 143 96.1Z" fill="#00635D"/>
<path d="M109.6 91.1999C108.7 92.3999 108 94.4999 108 95.6999C108 101 115.8 104.1 119.3 100.2C121.5 97.6999 121.4 92.6999 119.2 90.6999C116.5 88.1999 111.4 88.4999 109.6 91.1999ZM117.1 91.9999C119.5 93.3999 119.6 97.5999 117.2 98.8999C112.9 101.2 108.7 97.2999 111 92.9999C112.2 90.7999 114.1 90.4999 117.1 91.9999Z" fill="#00635D"/>
<path d="M203.5 91.5C202.1 92.8 201 94.8 201 96C201 97.1 202.1 99.2 203.5 100.5C205.8 102.9 206.4 103 218.7 103C241.9 102.9 249 101.1 249 95C249 89.4 247.3 89 225.6 89C206 89 205.9 89 203.5 91.5ZM212 96C212 98.7 211.6 101 211.1 101C210.2 101 208.9 93 209.6 91.8C211 89.6 212 91.5 212 96ZM215.9 98.7C215.9 100 215.6 101 215 101C214.4 101 214.1 98.7 214.1 95.7C214.2 91.3 214.3 90.9 215 93.5C215.4 95.1 215.8 97.5 215.9 98.7ZM219.9 94.2C219.9 96 219.5 98.4 219.1 99.5C218.5 101 218.2 100.6 217.7 97.5C216.7 91.7 216.8 91 218.5 91C219.5 91 220 92 219.9 94.2ZM226.8 95.7C226.5 101 224.5 101.8 224.5 96.7C224.4 92.7 224.9 91 226.2 91C226.7 91 227 93.1 226.8 95.7ZM229.7 97.7C229.5 99.3 229.3 98.2 229.3 95.5C229.3 92.7 229.5 91.5 229.7 92.7C229.9 94 229.9 96.2 229.7 97.7ZM232.7 97.7C232.5 99.3 232.3 98.2 232.3 95.5C232.3 92.7 232.5 91.5 232.7 92.7C232.9 94 232.9 96.2 232.7 97.7ZM235.7 97.7C235.5 99.3 235.3 98.2 235.3 95.5C235.3 92.7 235.5 91.5 235.7 92.7C235.9 94 235.9 96.2 235.7 97.7ZM239.9 98.2C239.9 99.2 239.6 100 239 100C238.5 100 238.1 97.9 238.1 95.2C238.2 91 238.3 90.8 239 93.5C239.4 95.1 239.8 97.3 239.9 98.2ZM241.7 94.7C241.4 95.7 241.2 95.1 241.2 93.5C241.2 91.8 241.4 91.1 241.7 91.7C241.9 92.4 241.9 93.8 241.7 94.7ZM207.9 98.3C208 99.9 207.6 100.9 207 100.5C206.5 100.2 206 98 206.1 95.7C206.1 92.4 206.3 91.9 207 93.5C207.5 94.6 207.9 96.8 207.9 98.3ZM222.6 96.6C222.2 98.6 221.6 100 221.4 99.7C221.1 99.4 221.2 97.6 221.6 95.6C221.9 93.5 222.5 92.1 222.7 92.4C223 92.7 222.9 94.5 222.6 96.6ZM246.5 95C246.5 96.3 245.9 97.5 245.3 97.7C244.4 98 244 97.1 244 95C244 92.9 244.4 92 245.3 92.2C245.9 92.5 246.5 93.7 246.5 95ZM203.7 97.2C203.4 97.9 203.2 97.4 203.2 96C203.2 94.6 203.4 94.1 203.7 94.7C203.9 95.4 203.9 96.6 203.7 97.2Z" fill="#00635D"/>
<path d="M29.6 138.7C28.6 144.9 28.9 162 30 162C30.6 162 31 156.8 31 148.5C31 141.1 30.8 135 30.6 135C30.4 135 30 136.7 29.6 138.7Z" fill="#00635D"/>
<path d="M38.6 152.8C37.4 154.8 36.7 166 37.7 166C38.3 166 39 163 39.2 159.2C39.7 152.2 39.6 151.2 38.6 152.8Z" fill="#00635D"/>
<path d="M169.7 192.7C169.3 193 169 195.1 169 197.3C169 200.5 168.4 201.7 165.5 204.3C160.7 208.5 161.1 209.9 166 206C169.3 203.4 170 202.2 170 199.4C170 197.4 170.5 195 171 193.9C172 192.1 171.1 191.2 169.7 192.7Z" fill="#00635D"/>
<path d="M125.4 201.7C125.5 204.4 126.2 206.6 127 206.8C127.7 207.1 129.1 208.1 130.1 209.1C132.4 211.4 133 211.5 133 209.5C133 208.7 131.7 207.4 130 206.5C127.6 205.2 127 204.3 127 201.5C127 199.7 126.6 197.9 126.1 197.5C125.5 197.2 125.2 198.9 125.4 201.7Z" fill="#00635D"/>
<path d="M177 206.6C177 207.5 175.9 209.1 174.5 210.2C173.1 211.3 172.2 212.6 172.5 213.1C173.3 214.2 179 208.4 179 206.5C179 205.7 178.6 205 178 205C177.5 205 177 205.7 177 206.6Z" fill="#00635D"/>
<path d="M251.9 283.4C251.1 284.2 252.2 297 253.1 297C254.2 297 254.3 284.3 253.1 283.6C252.7 283.3 252.1 283.2 251.9 283.4Z" fill="#00635D"/>
<path d="M117.1 240.7C117.1 244.6 117.5 248.2 118 248.5C119.2 249.2 119.2 241.1 118 236.5C117.4 234.2 117.2 235.3 117.1 240.7Z" fill="#00635D"/>
<path d="M121 246.2C121 248.2 121.5 250.2 122.1 250.5C123.9 251.6 124 250.6 122.5 246.5L121.1 242.5L121 246.2Z" fill="#00635D"/>
<path d="M182.1 280.5C182 282.7 181.3 286.3 180.5 288.5C178.7 293.3 178.8 293 180 293C181.5 293 183.2 285.9 182.8 281L182.3 276.5L182.1 280.5Z" fill="#00635D"/>
<path d="M177 288.7C177 289.7 176.7 291.6 176.4 293C175.9 294.8 176 295.2 176.8 294.5C178.5 293 179.5 287 178.1 287C177.5 287 177 287.8 177 288.7Z" fill="#00635D"/>
</svg>
