<svg width="300" height="447" viewBox="0 0 300 447" fill="none" xmlns="http://www.w3.org/2000/svg">
<path d="M44 126.5C49.2 139.7 62.5 160.667 68.5 169.5C66.8333 172.833 61.9 183.4 55.5 199C47.5 218.5 68.5 227.5 93.5 227.5C113.5 227.5 135.833 218.167 144.5 213.5C168.5 207 213.5 175.5 220.5 152C226.1 133.2 222.833 119.5 220.5 115C225 108 220.5 92.0002 216 87.5C211.5 82.9998 175 85.0001 175 85.0001C171 81 129.833 87.3335 118 92.0002C107.5 87.5003 68.5 89.0001 55.5 85.0001C42.5 81.0001 34.5 90.5001 37.5 96.5001C39.9 101.3 42.8333 106.833 44 109C41.8333 109.333 38.8 113.3 44 126.5Z" fill="#F5B172"/>
<path d="M79 4.60002C68.9 5.20002 50.8 7.00002 48.1 7.70002C45.9 8.20002 45.8 8.70002 46.3 13.1C47 19.2 55.5 39.8 62.4 52C68.1 62.2 74.7 76.7 73.9 77.5C73.6 77.7 65.1 77.4 55 76.9C38.2 75.9 17.5 76.1 16.4 77.3C15.9 77.8 27 98.7 29.9 102.9C30.9 104.3 37.2 116.6 43.8 130.3L55.8 155L49.3 167.3C45.7 174 41.4 182.4 39.8 186C38.2 189.6 34 196.8 30.5 202C24.7 210.7 13 231.4 13 233C13 233.7 17.6 235.1 24.1 236.4L26.7 237L23.9 247.2C22.3 252.8 20.3 261.4 19.5 266.4C18.6 271.4 15.5 285.8 12.5 298.5C7.89999 318.1 6.69999 325.4 4.39999 347.8C1.89999 371.7 1.79999 375.3 2.79999 385.8C4.29999 401.5 5.89999 405.8 12.6 411.9C18.5 417.3 25.1 420.2 35.5 422.2C40.3 423.1 42 423.9 42 425.1C42 428.4 49.8 433.4 60 436.4C68.7 439 81.7 440.8 108.5 443.1C129.8 444.9 137.7 445.1 162 444.5C198.8 443.7 217.4 441.9 245.8 436.4C254.2 434.8 254.7 434.5 259.5 429.5C263.5 425.4 265.5 424.1 268.7 423.5C274.7 422.5 285.9 416.9 290.1 412.7C298.3 404.7 299.3 397.5 295.6 374.5C294.2 365.7 292.6 354.8 292.1 350.4C291.5 345.9 289.7 336.9 288.1 330.4C286.5 323.8 284.2 312.9 283 306C281.8 299.1 280 290.1 279 286C278 281.9 275.3 269 273 257.5C270.7 245.9 268.7 235.7 268.4 234.7C268 233.4 268.5 233 270.2 233C273.9 233 277 231.9 277 230.5C277 229.9 276 228.5 274.9 227.4C273.7 226.4 270.4 221.9 267.5 217.5C264.7 213.1 259 205.2 254.9 200C247 189.8 230.5 165.2 231.2 164.5C232.5 163.2 252.3 179.4 256.6 185.2C257.8 186.8 259.3 190.2 259.9 192.7C262.4 202.5 270.1 205.8 281.5 202C285.4 200.7 288 199.3 288 198.4C288 196.5 286.5 196.6 279.7 199C271.1 202 264.9 199.6 263.4 192.6C262.3 187.3 259.4 182.7 253.8 177.4C246.5 170.3 235.3 162 230.8 160.2C226.2 158.4 225.8 156.5 230 157.4C246 160.5 245.4 160.5 260.5 157.5C277.2 154.1 279.7 154.4 288.1 161.3C295.4 167.3 295.8 167.5 296.6 166.7C297.8 165.6 290.1 158.2 284.5 154.9C278.2 151.3 274.3 151.2 260.8 154.5C250.6 157 241.8 157.5 237 156C234.8 155.3 234.8 155.2 236.6 155.1C240.2 154.9 242.4 152.6 241.6 149.7C240.2 144.1 235.8 144.2 229.8 149.8C228.3 151.2 226.8 152.1 226.4 151.8C226.1 151.5 229.3 140.5 233.4 127.5C237.6 114.5 241.7 100.1 242.6 95.6C243.5 91 245.6 84.6 247.6 80.7L251.1 74H228.1C215.4 74 205 73.9 205 73.7C205.1 71.9 215.5 43.3 220.1 32.3C226.4 17.3 229.3 8.90002 228.5 8.10002C228.2 7.90002 226.8 7.50002 225.3 7.30002C223.7 7.20002 218.7 6.50002 214 5.90002C206 4.90002 93.7 3.80002 79 4.60002ZM71 14C109.3 16.5 181 16.1 216.7 13.1C226.5 12.3 226.5 10.5 217.3 30.7C213.8 38.5 208.5 51.6 205.7 59.7L200.5 74.5L191.5 75.2C186.5 75.6 175.8 76.6 167.5 77.5C159.3 78.3 141.5 79.5 128 80.1C106.9 81 101.8 81 91.5 79.6C85 78.7 79.3 78 78.9 78C78.6 78 77.7 76.1 77 73.7C75.5 68.7 71.6 60.6 64.9 49C59.6 39.7 49 16 49 13.4C49 12.1 49.7 11.9 52.8 12.4C54.8 12.7 63 13.4 71 14ZM246 77.7C246 78 244.9 80.2 243.6 82.4C242.3 84.7 241 88.8 240.6 91.7C239.9 97.6 234.1 117.8 227.3 138.3C222.8 152 222.7 152.2 220.1 151.5C212.9 149.7 200 149.9 186.5 151.8C170 154.2 151.8 155 109 155C76.5 155.1 60.6 154 58.4 151.8C57.7 151.1 51.3 139 44.2 125C37.2 111 28.8 94.9 25.7 89.2C22.6 83.6 20 78.7 20 78.3C20 77.1 74.8 80.3 92.5 82.6C101.2 83.7 108.5 84 119 83.5C136.9 82.7 168.8 80.4 185.2 78.6C197.8 77.2 246 76.5 246 77.7ZM239 149.3C239 151.6 236.7 153 233.1 153H229.7L232 150.5C234.5 147.9 239 147.1 239 149.3ZM223.8 159.2C225.3 160.9 228.1 165.1 230 168.4C235.4 177.6 245.5 192.5 252.5 201.5C258.9 209.7 272.2 229.1 271.8 229.5C270.9 230.2 234.4 232.4 213 233C199 233.4 183.9 234.3 179.5 235C164.2 237.5 21.2 236.1 17 233.5C15.3 232.5 28.2 209.3 36.3 198.7C38.3 196.1 40.2 193 40.5 191.8C41.1 189.8 53.7 163 55.9 159C57 157 66.3 157.3 76.7 159.5C81 160.5 89.2 161.3 95 161.4C110.6 161.7 147.7 160.4 162 159C168.9 158.3 184.6 157.5 197 157.1C209.4 156.7 219.9 156.3 220.3 156.2C220.8 156.1 222.3 157.4 223.8 159.2ZM267.9 247C269.1 254.7 271.7 267.6 273.6 275.7C275.6 283.9 278.7 298.4 280.5 308C282.4 317.6 285 330.4 286.4 336.5C287.8 342.5 289.4 352.2 290 358C290.6 363.8 291.8 372.3 292.6 376.8C293.5 381.7 294.1 388.6 293.8 393.3C293.5 401.2 293.3 401.7 289.1 407.3C286.6 410.6 282.9 414 280.7 415.2C274.6 418.3 259 421.9 246.7 423C240.5 423.6 232.8 424.5 229.5 425C209.6 428.2 143.9 429.9 109.3 428.1C84.5 426.9 50 422.4 34.5 418.4C20 414.7 11 408.1 8.19999 399C4.89999 388.5 4.19999 371.1 6.49999 356.2C7.29999 350.9 8.59999 339.5 9.39999 331C10.5 320.6 12.1 311.1 14.5 302C18.1 288.3 19.6 281.6 22.5 265.5C23.4 260.5 25.3 252 26.7 246.6L29.4 236.7L49.4 237.3C60.5 237.6 73.6 238.4 78.5 239.1C89.5 240.5 170.9 239.6 178.5 238C181.3 237.4 196.1 236.5 211.5 235.9C226.9 235.4 244 234.6 249.5 234.1C255 233.7 260.9 233.3 262.5 233.2L265.6 233L267.9 247ZM63 426.5C69.9 427.4 77.1 428.5 79 429.1C80.9 429.6 92.6 430.5 105 431C117.4 431.5 129.3 432.2 131.5 432.5C147.5 434.5 216.7 433.2 228 430.6C231.6 429.7 236.5 429 239 429C241.5 429 246.8 428.1 250.8 427.1C254.7 426 258 425.5 258 425.9C258 427.7 253.1 431 249 431.9C222 437.9 189.8 441 154.7 441C103.5 441 66.8 436.7 50.5 428.9C44.8 426.1 43.1 423.5 47.6 424.4C49.2 424.7 56.1 425.7 63 426.5Z" fill="#713912"/>
<path d="M43.3 105.7C44.3 113.6 47.9 124 49.7 124C51.5 124 51.3 122.6 47.9 109.7C46.3 104 45 101 44.1 101C43 101 42.9 102.1 43.3 105.7Z" fill="#713912"/>
<path d="M55.6 113.9C55.2 114.4 55.9 117.5 57 120.7C58.1 123.8 59 126.6 59 126.7C59 126.9 59.9 127 61 127C63.5 127 63.5 126.6 60.6 119.5C58.2 113.6 56.7 112 55.6 113.9Z" fill="#713912"/>
<path d="M223 194.2C223 194.9 223.7 199.5 224.5 204.5C225.3 209.4 226 215.2 226 217.2C226 219.9 226.4 221 227.5 221C228.6 221 229 219.8 229 216.2C228.9 209.3 225.7 193.7 224.3 193.2C223.6 193 223 193.4 223 194.2Z" fill="#713912"/>
<path d="M235.4 211.6C235.7 214.2 236 217.3 236 218.6C236 220.1 236.6 221 237.5 221C238.6 221 239 219.9 239 217.1C239 211 237.9 207 236.2 207C235 207 234.8 207.9 235.4 211.6Z" fill="#713912"/>
<path d="M108.4 285C93.5 286 76.4 288.6 56.9 292.9C33.5 298 26.6 301.7 20 312.8C14.9 321.1 14.2 326.3 13.4 357.7C12.6 389 12.8 390.5 20.6 399C28.6 407.6 38.3 411.4 60.4 414.6C66.5 415.4 75.8 417 81 418C89.6 419.6 95.5 419.8 141.5 419.5C211.2 419.1 228.9 417.9 252 411.9C265.4 408.3 271.6 405.3 277 399.4C283.4 392.5 284.1 388.1 283.7 361.4C283.3 335.7 282.8 333 274.7 316.2C269.5 305.2 264.4 300.1 253.6 294.9C243.6 290.1 231.3 287.4 212.9 286C194.5 284.6 124.4 283.9 108.4 285ZM219 294C236.3 296.2 241.9 297.6 248.4 301.4C253.1 304.2 257.3 308.7 256.5 310.1C255.8 311.2 253.6 310.3 247.5 306.5C237.8 300.3 222.2 297.2 195.3 296.1C186.4 295.7 178.7 295.1 178.3 294.6C177.9 294.2 178.4 293.2 179.5 292.3C182 290.4 195.8 291 219 294ZM63.1 302.4C64.7 308.2 72.4 313.1 83.8 315.4C86.7 316 89.2 316.9 89.3 317.5C90.1 321.3 70.3 315.9 64.4 310.8C59.9 306.8 57.5 298 61.3 299.3C61.9 299.5 62.7 300.9 63.1 302.4ZM49.3 317.1C71.6 328.3 74.9 328.9 123.5 330.1C165.7 331.1 176.1 330.6 198 326.9C210.1 324.9 229.9 319.9 235.8 317.4C239.8 315.8 243 315.6 243 317C243 318.6 229.7 324.8 220.3 327.5C205.8 331.7 194.9 333 163.5 334.1C128.1 335.4 94.2 334.8 81.5 332.6C63.7 329.6 49.6 324.4 36.6 316.2C34.1 314.6 32.3 313 32.7 312.6C34.4 310.9 39.9 312.5 49.3 317.1Z" fill="#713912"/>
</svg>
