<svg width="300" height="496" viewBox="0 0 300 496" fill="none" xmlns="http://www.w3.org/2000/svg">
<path d="M148.5 132.5C135.7 126.1 113.167 126.833 103.5 128C51.5 128 73.5 181 82.5 188.5C89.7 194.5 103.5 203.5 103.5 203.5C106 209 111.6 222.4 114 232C117 244 136.5 254.5 155.5 242.5C174.5 230.5 183 203.5 183.5 178C184 152.5 164.5 140.5 148.5 132.5Z" fill="#F5B172"/>
<path fill-rule="evenodd" clip-rule="evenodd" d="M66.5 297.5C89.6667 294.667 144 288.9 176 288.5C216 288 258 287.5 272.5 292.5C284.81 296.745 281.984 320.089 278.403 349.683C277.765 354.948 277.104 360.411 276.5 366C273.449 394.218 275.052 416.62 275.984 429.656C276.275 433.714 276.5 436.864 276.5 439C276.5 444.988 251.93 447.435 217.075 450.906C199.546 452.651 179.415 454.656 158.5 457.5C108.5 464.3 70.3333 453.333 57.5 447C57.3333 452.667 54.2 464.6 43 467C31.8226 469.395 29.8878 436.732 28.5441 414.05C28.2048 408.322 27.9032 403.23 27.5 399.5C25.5 381 30.5 306.5 32 297.5C33.5 288.5 38.5 288.5 48 288.5C55.6 288.5 63.5 294.5 66.5 297.5ZM66.5 323.5C81.5 321 125.5 318 164.5 318H248.5C245.833 328.833 240.5 354.2 240.5 369V422.5C215.333 427.833 155.6 436.9 118 430.5C72.1709 422.699 71.5046 422.03 66.8643 417.365C66.7457 417.246 66.6246 417.125 66.5 417C63.8059 414.306 63.8699 404.934 63.9544 392.561C64.0268 381.971 64.1141 369.182 62.5 356.5C59.7 334.5 64 325.333 66.5 323.5Z" fill="#F5B172"/>
<path d="M273.5 4.09998C269.6 5.19998 266.1 8.39998 264.4 12.6C262.4 17.4 262.5 43.8 264.5 48.7C265.3 50.7 265.8 52.5 265.5 52.8C265.2 53.1 259 53.7 251.7 54.2C232 55.4 217.5 57.6 211.6 60.4C208.8 61.7 203.6 65 200.1 67.8C189 76.8 187.8 77.3 174.5 78.7C167.9 79.3 160.4 79.9 157.8 79.9L153 80V72.5C153 65.7 153.2 65 155 65C158.5 65 160.2 60.7 160.8 50.6C161.4 37.8 160.3 26.6 158 23.8C156.4 21.8 155.3 21.5 148.1 21.5C142 21.5 139.7 21.9 138.4 23.1C137.4 24.2 136.2 28.7 135.2 35.4C133.9 44.4 133.8 47.3 134.8 53.3C136.1 60.8 138.1 65 140.4 65C142.2 65 143 68.1 143 75.2V80.9L139.5 81.6C136.2 82.2 136 82.4 136 86.4C136 92.6 137 95 139.6 95.6C141.9 96.2 142 96.5 142 106V115.8L132.8 116.4C82.1 119.5 62 121.2 54.7 123.1C50.4 124.2 48 127.3 47.3 132.9C46.5 138.9 48.3 144.4 56.5 161.4C70.2 189.5 78.9 200.1 94.9 208.4C102.6 212.4 103.8 213.4 104.4 216.1C105.3 220.9 105.1 225 103.6 230C102.3 234.4 102.2 234.5 96.4 235.8C89.2 237.3 87 239.6 87 245.6V250H78.3C73.4 250 63.9 250.5 57 251.1C50.1 251.6 38.6 252.5 31.3 253C24.1 253.5 16.7 254.5 14.8 255.3C7.6 258.4 3.8 266.4 4.7 276.8C5.5 285 6.9 286.3 16.7 287L24.2 287.5L24.1 359.5C24 419.9 24.2 432.9 25.4 440C26.3 444.7 27 450.6 27 453.2C27 457.9 27 457.9 23.3 458.5C13.5 460 10.1 462.1 6.7 468.5C5 471.7 4.6 474.1 4.8 480C5.1 491.2 5.5 491.5 23.3 491.4C31.1 491.4 42 490.8 47.5 490.1C61.5 488.4 229.5 486.9 256.8 488.2C281.1 489.4 289.3 488.8 292.6 485.5C294.8 483.3 295 482.3 295 473C295 458.3 293.3 456 281.5 454.8C278.5 454.5 278.5 454.4 277.6 446.5C277.1 442.1 276.9 418.5 277.1 394C277.3 369.5 277.4 334.8 277.3 316.9L277.1 284.3L284.3 283.2C294.1 281.7 295 280.5 295 268.5C295 263.5 294.5 257.8 293.9 256C291.9 250.4 289.4 250 259.3 250C244.6 250 228.8 249.7 224.3 249.4L216.2 248.7L215.5 245.4C214.6 240.3 211.2 237.1 205.8 236.1C203.2 235.7 200.4 234.7 199.5 234C197.1 232 193.2 222.7 192.4 217.3L191.8 212.2L195.8 210.1C201.4 207.2 214.3 196.8 217.7 192.4C219.2 190.4 222 187 223.8 184.9C229.9 177.9 235.9 165.8 241 150.3C243.8 142 246 133.8 246 132.1C246 127.4 244.3 124.1 241.3 122.9C237.8 121.5 175.9 116.1 163 116H153.5V105.5L153.4 95H159.5C170.5 95 179.4 93.8 187.2 91.4C194.7 89 195 88.7 201.5 80.9C205.4 76.3 209.6 72.3 211.4 71.5C216.2 69.5 249.6 65 259.6 65C264.5 65 270.3 64.6 272.5 64.1C274.7 63.6 279.1 62.9 282.2 62.5C288.5 61.8 289.2 61 289.6 53.5C289.7 51.3 290.3 46.1 291 42C292.6 31.6 291.8 15 289.4 10.9C285.9 4.89998 279.6 2.19998 273.5 4.09998ZM283.1 7.29998C288.9 11.1 290.5 15.8 290.3 28.5C290.3 39.7 289 46.7 286.4 50.7C285.1 52.8 284.2 53 277 53C267.6 53 267.5 52.9 265.4 41.1C262 21.6 265.3 8.79998 274.6 5.99998C278.9 4.69998 279.4 4.79998 283.1 7.29998ZM141.8 125C142.4 136.8 143.8 136 122.7 135.9C112.7 135.9 100.7 135.5 96 135C91.3 134.6 81.4 133.7 74 133.1C59.8 131.9 54.9 130.8 52.9 128.4C50.9 125.9 53.1 124.9 64.1 123.5C79.5 121.4 127.3 118.2 138.5 118.4C141.5 118.5 141.5 118.5 141.8 125ZM213.5 121.5C238 123.8 244 125 244 127.6C244 130.8 237.6 132 207 134.6C186.4 136.4 155.7 137.1 154.4 135.7C153.4 134.7 152.5 121.6 153.3 119.7C154.1 117.7 182 118.5 213.5 121.5ZM61 135.1C70 137.6 98.9 139.5 142.5 140.5C170.3 141.1 172.8 141 202.5 138C219.6 136.3 235.2 134.5 237.3 134.1C241.9 133 242 133.7 238.5 145C235 155.8 231 164.5 224.4 175.7C216.7 188.5 211.8 193.7 198.7 202.3C189.9 208.2 185.1 210.6 176.5 213.5L165.5 217.2L147.5 216.7C131.7 216.3 127.9 215.8 116.6 213.1C102.1 209.6 94.4 206.1 85.3 198.8C76.8 192.1 74.7 189.3 68.5 177.1C65.6 171.3 61.1 162.9 58.6 158.5C54.5 151.4 51.6 143.9 49.6 134.6C49 132 49.1 131.8 51.2 132.4C52.5 132.8 56.9 134 61 135.1ZM192.5 227.5C193 228.6 194.2 230.7 195.2 232.2L197 234.9L151 234.7C110.5 234.5 105.1 234.3 105.6 233C106 232.2 106.5 227.6 106.8 222.7C107 217.9 107.4 214 107.5 214C107.6 214 109.3 214.6 111.1 215.4C117.5 218 137.9 220.5 152 220.4C165.9 220.3 174.7 218.9 184.5 215.1L189.5 213.2L190.6 219.3C191.2 222.7 192.1 226.4 192.5 227.5ZM205.8 238.6C209.6 239.4 213 243.2 213 246.6C213 248.8 212.6 249 207.8 249.1C204.9 249.1 177 249.2 145.8 249.3L89 249.5V246.4C89 241.3 91.7 238.9 98.5 238C105.3 237.1 200.9 237.6 205.8 238.6ZM256.6 283.1C266.4 283.6 274.5 284.2 274.5 284.3C274.6 284.4 274.3 318.5 273.9 360C273.5 401.5 273.6 437.3 274 439.5C274.5 441.7 275 446 275.1 449L275.4 454.5L271 454.8C267.4 455 266.3 454.7 265.5 453.2C261.9 446.4 254.7 436.9 253.8 437.8C252.6 439 253.9 441.7 259.1 448.6C261.3 451.4 263 454 263 454.3C263 454.7 260.9 455 258.3 454.9C253.5 454.9 253.4 454.8 247 446.9C243.4 442.5 239 436.4 237.1 433.4C235 430.1 233.3 428.3 232.7 428.9C231.1 430.5 238 441.9 245.9 450.3L250.3 455L213.9 454.5C193.9 454.2 167.4 453.8 155 453.6C142.6 453.4 126.4 453.6 119 454.1C111.6 454.5 95.8 454.9 84 455C64.3 455.2 55 455.7 36.9 457.6L30.3 458.3L29.6 450.9C29.3 446.8 28.5 441 28 438C27.6 435 27.1 399.8 27.1 359.7C27 302.2 27.3 287 28.3 287C28.9 287 35.3 286.2 42.5 285.4C52.8 284.1 71.8 283.6 133.5 283.1C176.4 282.7 217.6 282.3 225.1 282.2C232.6 282.1 246.8 282.5 256.6 283.1Z" fill="#713912"/>
<path d="M65 148.3C65 151.8 71.5 168 75.8 175.2C80.9 183.8 87.7 192.5 89.3 192.5C91.7 192.5 90.6 190.1 85.2 183.3C78.8 175.3 75.1 168.4 70.4 156C67.5 148.2 65 144.7 65 148.3Z" fill="#713912"/>
<path d="M91 179.8C91 185 101.4 195 104.1 192.3C104.9 191.5 104 190.5 100.9 188.4C98.6 186.8 95.8 183.8 94.7 181.7C92.7 177.7 91 176.9 91 179.8Z" fill="#713912"/>
<path d="M227 290C227 290.6 229.4 294.2 232.3 298.1C235.3 301.9 239.8 309.1 242.4 314C247.1 323 248.5 324.8 249.8 323.5C251 322.4 241.2 304.8 234.9 296.7C229.3 289.5 227 287.6 227 290Z" fill="#713912"/>
<path d="M32.5 307.1C33.4 315.6 35.5 325.4 38.7 337C41.5 347.1 42.7 349.7 44.2 348.2C44.7 347.7 43.8 342.5 42 335.6C40.3 329.2 37.9 318.9 36.6 312.8C35.3 306.2 33.9 301.5 33.1 301.2C32.1 300.9 31.9 302.1 32.5 307.1Z" fill="#713912"/>
<path d="M42.6 320.8C41.7 322.3 48.3 340.3 49.9 340.8C51.6 341.4 51.2 339.3 47.3 328.8C44.2 320.6 43.5 319.3 42.6 320.8Z" fill="#713912"/>
<path d="M176 324.1C162.5 324.5 147.5 325.3 142.5 325.9C137.6 326.5 118.3 327 99.8 327C77.2 327 65.3 327.4 63.7 328.1C62.3 328.7 60.7 330.4 60 331.9C58.6 334.8 57.2 366.2 57.1 396.8L57 415.2L60.3 418.5C66.8 425 71 425.5 109.5 425.3C181.2 424.7 227.8 420.1 243.7 411.8C245 411.2 246.8 408.6 247.7 406.1C249.3 402 249.5 397.7 249.5 368C249.5 337.9 249.3 334 247.7 329.7C246.7 327.1 245 324.5 244 324C241.9 322.9 214.4 322.9 176 324.1ZM242.9 327.9C245.8 330.8 246.2 335.7 245.8 371.2C245.5 402.5 245.4 404 243.4 406.7C240.4 410.7 236 412.5 222.5 414.8C196.6 419.4 156 422.1 111.5 422.1C84.1 422.1 77.5 421.9 72.5 420.5C60.1 417.2 59.4 415.5 60.5 390.5C60.9 380.6 61.5 363.6 61.9 352.7C62.4 334.6 62.7 332.7 64.4 331.4C66 330.3 72.6 330 100.5 330C119.2 330 138.4 329.5 143 328.9C153.1 327.6 187.7 326.4 218.8 326.2C239.5 326 241.1 326.1 242.9 327.9Z" fill="#713912"/>
<path d="M151.7 349.4C143.3 351.7 138.2 358.3 136 369.8C133.6 382 137.6 391 147.5 395.6C159.3 401.1 168.9 396.8 173.6 383.9C175.4 378.7 175.7 368.2 174.1 362.2C172.1 355 164.1 347.8 158.3 348.1C157.3 348.1 154.3 348.7 151.7 349.4ZM165.9 353.7C170 356.8 170.5 359.7 168 366.4C165.3 373.4 159.5 380.1 153.6 383C148 385.7 144.5 385.6 141.5 382.5C137.1 378.2 138.5 366 144.3 357.6C148.7 351.3 159.9 349.3 165.9 353.7Z" fill="#713912"/>
<path d="M32 343.1C32 348.8 41.5 374 43.7 374C45.6 374 45.4 373.3 41.1 362.9C38.9 357.7 36.6 350.9 35.9 347.7C35.1 344.5 34 342 33.3 342C32.6 342 32 342.5 32 343.1Z" fill="#713912"/>
</svg>
